/* XPM */
static char *result[] = {
/* columns rows colors chars-per-pixel */
"116 129 11 1 ",
"  c black",
". c #393939",
"X c #442901",
"o c #774803",
"O c #4C4C4C",
"+ c #935300",
"@ c #B36900",
"# c blue",
"$ c #858380",
"% c #BAB7B3",
"& c #DADADA",
/* pixels */
"##################                                                                                ##################",
"##################                                                                                ##################",
"################  ..OOOOOO$$$$%%%%%%&&&&&&%%%%%%$$$$$$$$$$$$$$$$$$$$$$OOOOOOOOOOOOOOOOOO........OO  ################",
"################  ..OOOOOO$$$$%%%%%%&&&&&&%%%%%%$$$$$$$$$$$$$$$$$$$$$$OOOOOOOOOOOOOOOOOO........OO  ################",
"##############  ..OOOOOO$$$$%%%%%%&&&&&&&&%%%%%%$$$$$$$$$$$$$$$$$$$$$$OOOOOOOOOOOOOOOOOOOO........OO  ##############",
"##############  ..OOOOOO$$$$%%%%%%&&&&&&&&%%%%%%$$$$$$$$$$$$$$$$$$$$$$OOOOOOOOOOOOOOOOOOOO........OO  ##############",
"############  ..OOOOOO$$$$%%%%%%&&&&&&&&%%%%%%%%$$$$$$$$$$$$$$$$$$$$$$OOOOOOOOOOOOOOOOOOOO..........OO  ############",
"############  ..OOOOOO$$$$%%%%%%&&&&&&&&%%%%%%%%$$$$$$$$$$$$$$$$$$$$$$OOOOOOOOOOOOOOOOOOOO..........OO  ############",
"############  ..OOOOOO$$$$%%%%%%&&&&&&&&%%%%%%%%$$$$$$$$$$$$$$$$$$$$$$OOOOOOOOOOOOOOOOOOOOOO........OO  ############",
"############  ..OOOOOO$$$$%%%%%%&&&&&&&&%%%%%%%%$$$$$$$$$$$$$$$$$$$$$$OOOOOOOOOOOOOOOOOOOOOO........OO  ############",
"##########  ooooooooooooXX++@@@@@@@@@@@@XX@@@@@@@@++++++++++XX++++++++++++++ooooooooXXooooooooooooooXXoo  ##########",
"##########  ooooooooooooXX++@@@@@@@@@@@@XX@@@@@@@@++++++++++XX++++++++++++++ooooooooXXooooooooooooooXXoo  ##########",
"##########  ooooooooooXX++++@@@@@@@@@@@@XX@@@@@@@@++++++++++XX++++++++++++++ooooooooXXooooooooooooooXXoo  ##########",
"##########  ooooooooooXX++++@@@@@@@@@@@@XX@@@@@@@@++++++++++XX++++++++++++++ooooooooXXooooooooooooooXXoo  ##########",
"########  ooooooooooooXX++@@@@@@@@@@@@XX@@@@@@@@@@++++++++++XX++++++++++++++ooooooooXXooooooooooooooooXXoo  ########",
"########  ooooooooooooXX++@@@@@@@@@@@@XX@@@@@@@@@@++++++++++XX++++++++++++++ooooooooXXooooooooooooooooXXoo  ########",
"########  ooooooooooXX++++@@@@@@@@@@@@XX@@@@@@@@@@++++++++++XX++++++++++++++ooooooooooXXooooooooooooooXXoo  ########",
"########  ooooooooooXX++++@@@@@@@@@@@@XX@@@@@@@@@@++++++++++XX++++++++++++++ooooooooooXXooooooooooooooXXoo  ########",
"######  ooooooooooooXX++@@@@@@@@@@@@@@XX@@@@@@@@++++++++++++XX++++++++++++++++ooooooooXXooooooooooooooXXoooo  ######",
"######  ooooooooooooXX++@@@@@@@@@@@@@@XX@@@@@@@@++++++++++++XX++++++++++++++++ooooooooXXooooooooooooooXXoooo  ######",
"######  ooooooooooXX++++@@@@@@@@@@@@@@XX@@@@@@@@++++++++++++XX++++++++++++++++ooooooooXXooooooooooooooooXXoo  ######",
"######  ooooooooooXX++++@@@@@@@@@@@@@@XX@@@@@@@@++++++++++++XX++++++++++++++++ooooooooXXooooooooooooooooXXoo  ######",
"####  ooooooooooooXX++++@@@@@@@@@@@@XX@@@@@@@@@@++++++++++++XX++++++++++++++++ooooooooXXooooooooooooooooXXoooo  ####",
"####  ooooooooooooXX++++@@@@@@@@@@@@XX@@@@@@@@@@++++++++++++XX++++++++++++++++ooooooooXXooooooooooooooooXXoooo  ####",
"####  ooooooooooXX++++@@@@@@@@@@@@@@XX@@@@@@@@@@++++++++++++XX++++++++++++++++ooooooooooXXooooooooooooooooXXoo  ####",
"####  ooooooooooXX++++@@@@@@@@@@@@@@XX@@@@@@@@@@++++++++++++XX++++++++++++++++ooooooooooXXooooooooooooooooXXoo  ####",
"####  ooooooooooXX++++@@@@@@@@@@@@@@XX@@@@@@@@@@++++++++++++XX++++++++++++++++ooooooooooXXooooooooooooooooXXoo  ####",
"####  ooooooooooXX++++@@@@@@@@@@@@@@XX@@@@@@@@@@++++++++++++XX++++++++++++++++ooooooooooXXooooooooooooooooXXoo  ####",
"##  ..OOOOOO$$$$%%%%%%%%&&&&&&&&%%%%%%%%$$$$$$$$$$$$$$$$$$$$$$$$$$$$$$$$$$$$OOOOOOOOOOOOOOOOOOOOOOOO........OOOO  ##",
"##  ..OOOOOO$$$$%%%%%%%%&&&&&&&&%%%%%%%%$$$$$$$$$$$$$$$$$$$$$$$$$$$$$$$$$$$$OOOOOOOOOOOOOOOOOOOOOOOO........OOOO  ##",
"##  ..OOOOOO$$$$%%%%%%%%&&&&&&&&%%%%%%%%$$$$$$$$$$$$$$$$$$$$$$$$$$$$$$$$$$$$OOOOOOOOOOOOOOOOOOOOOOOO........OOOO  ##",
"##  ..OOOOOO$$$$%%%%%%%%&&&&&&&&%%%%%%%%$$$$$$$$$$$$$$$$$$$$$$$$$$$$$$$$$$$$OOOOOOOOOOOOOOOOOOOOOOOO........OOOO  ##",
"##  ..OOOOOO$$$$%%%%%%%%&&&&&&&&%%%%%%%%$$$$$$$$$$$$$$$$$$$$$$$$$$$$$$$$$$$$OOOOOOOOOOOOOOOOOOOOOOOO........OOOO  ##",
"##  ..OOOOOO$$$$%%%%%%%%&&&&&&&&%%%%%%%%$$$$$$$$$$$$$$$$$$$$$$$$$$$$$$$$$$$$OOOOOOOOOOOOOOOOOOOOOOOO........OOOO  ##",
"##  ..OOOOOO$$$$%%%%%%%%&&&&&&&&%%%%%%%%$$$$$$$$$$$$$$$$$$$$$$$$$$$$$$$$$$$$OOOOOOOOOOOOOOOOOOOOOOOO........OOOO  ##",
"##  ..OOOOOO$$$$%%%%%%%%&&&&&&&&%%%%%%%%$$$$$$$$$$$$$$$$$$$$$$$$$$$$$$$$$$$$OOOOOOOOOOOOOOOOOOOOOOOO........OOOO  ##",
"  ooooooooooXX++++@@@@@@@@@@@@@@@@XX@@@@@@@@@@++++++++++++++XX++++++++++++++++ooooooooooooXXooooooooooooooooooXXoo  ",
"  ooooooooooXX++++@@@@@@@@@@@@@@@@XX@@@@@@@@@@++++++++++++++XX++++++++++++++++ooooooooooooXXooooooooooooooooooXXoo  ",
"  ooooooooooXX++++@@@@@@@@@@@@@@@@XX@@@@@@@@@@++++++++++++++XX++++++++++++++++ooooooooooooXXooooooooooooooooooXXoo  ",
"  ooooooooooXX++++@@@@@@@@@@@@@@@@XX@@@@@@@@@@++++++++++++++XX++++++++++++++++ooooooooooooXXooooooooooooooooooXXoo  ",
"  ooooooooooXX++++@@@@@@@@@@@@@@@@XX@@@@@@@@@@++++++++++++++XX++++++++++++++++ooooooooooooXXooooooooooooooooooXXoo  ",
"  ooooooooooXX++++@@@@@@@@@@@@@@@@XX@@@@@@@@@@++++++++++++++XX++++++++++++++++ooooooooooooXXooooooooooooooooooXXoo  ",
"  ooooooooooXX++++@@@@@@@@@@@@@@@@XX@@@@@@@@@@++++++++++++++XX++++++++++++++++ooooooooooooXXooooooooooooooooooXXoo  ",
"  ooooooooooXX++++@@@@@@@@@@@@@@@@XX@@@@@@@@@@++++++++++++++XX++++++++++++++++ooooooooooooXXooooooooooooooooooXXoo  ",
"  ooooooooXX++++++@@@@@@@@@@@@@@@@XX@@@@@@@@@@++++++++++++++XX++++++++++++++++++ooooooooooXXooooooooooooooooooXXoo  ",
"  ooooooooXX++++++@@@@@@@@@@@@@@@@XX@@@@@@@@@@++++++++++++++XX++++++++++++++++++ooooooooooXXooooooooooooooooooXXoo  ",
"  ooooooooXX++++@@@@@@@@@@@@@@@@@@XX@@@@@@@@@@++++++++++++++XX++++++++++++++++++ooooooooooXXooooooooooooooooooXXoo  ",
"  ooooooooXX++++@@@@@@@@@@@@@@@@@@XX@@@@@@@@@@++++++++++++++XX++++++++++++++++++ooooooooooXXooooooooooooooooooXXoo  ",
"  ooooooooXX++++@@@@@@@@@@@@@@@@XX@@@@@@@@@@@@++++++++++++++XX++++++++++++++++++ooooooooooooXXooooooooooooooooXXoo  ",
"  ooooooooXX++++@@@@@@@@@@@@@@@@XX@@@@@@@@@@@@++++++++++++++XX++++++++++++++++++ooooooooooooXXooooooooooooooooXXoo  ",
"  ooooooooXX++++@@@@@@@@@@@@@@@@XX@@@@@@@@@@@@++++++++++++++XX++++++++++++++++++ooooooooooooXXooooooooooooooooXXoo  ",
"  ooooooooXX++++@@@@@@@@@@@@@@@@XX@@@@@@@@@@@@++++++++++++++XX++++++++++++++++++ooooooooooooXXooooooooooooooooXXoo  ",
"  ooooooooXX++++@@@@@@@@@@@@@@@@XX@@@@@@@@@@@@++++++++++++++XX++++++++++++++++++ooooooooooooXXooooooooooooooooXXoo  ",
"  ooooooooXX++++@@@@@@@@@@@@@@@@XX@@@@@@@@@@@@++++++++++++++XX++++++++++++++++++ooooooooooooXXooooooooooooooooXXoo  ",
"  ooooooooXX++++@@@@@@@@@@@@@@@@XX@@@@@@@@@@@@++++++++++++++XX++++++++++++++++++ooooooooooooXXooooooooooooooooXXoo  ",
"  ooooooooXX++++@@@@@@@@@@@@@@@@XX@@@@@@@@@@@@++++++++++++++XX++++++++++++++++++ooooooooooooXXooooooooooooooooXXoo  ",
"  ooooooooXX++++@@@@@@@@@@@@@@@@XX@@@@@@@@@@@@++++++++++++++XX++++++++++++++++++ooooooooooooXXooooooooooooooooXXoo  ",
"  ooooooooXX++++@@@@@@@@@@@@@@@@XX@@@@@@@@@@@@++++++++++++++XX++++++++++++++++++ooooooooooooXXooooooooooooooooXXoo  ",
"  ooooooooXX++++@@@@@@@@@@@@@@@@XX@@@@@@@@@@@@++++++++++++++XX++++++++++++++++++ooooooooooooXXooooooooooooooooXXoo  ",
"  ooooooooXX++++@@@@@@@@@@@@@@@@XX@@@@@@@@@@@@++++++++++++++XX++++++++++++++++++ooooooooooooXXooooooooooooooooXXoo  ",
"  ooooooooXX++++@@@@@@@@@@@@@@@@XX@@@@@@@@@@@@++++++++++++++XX++++++++++++++++++ooooooooooooXXooooooooooooooooXXoo  ",
"  ooooooooXX++++@@@@@@@@@@@@@@@@XX@@@@@@@@@@@@++++++++++++++XX++++++++++++++++++ooooooooooooXXooooooooooooooooXXoo  ",
"  ooooooooXX++++@@@@@@@@@@@@@@@@XX@@@@@@@@@@@@++++++++++++++XX++++++++++++++++++ooooooooooooXXooooooooooooooooXXoo  ",
"  ooooooooXX++++@@@@@@@@@@@@@@@@XX@@@@@@@@@@@@++++++++++++++XX++++++++++++++++++ooooooooooooXXooooooooooooooooXXoo  ",
"  ooooooooXX++++@@@@@@@@@@@@@@@@XX@@@@@@@@@@@@++++++++++++++XX++++++++++++++++++ooooooooooooXXooooooooooooooooXXoo  ",
"  ooooooooXX++++@@@@@@@@@@@@@@@@XX@@@@@@@@@@@@++++++++++++++XX++++++++++++++++++ooooooooooooXXooooooooooooooooXXoo  ",
"  ooooooooXX++++@@@@@@@@@@@@@@@@XX@@@@@@@@@@@@++++++++++++++XX++++++++++++++++++ooooooooooooXXooooooooooooooooXXoo  ",
"  ooooooooXX++++@@@@@@@@@@@@@@@@XX@@@@@@@@@@@@++++++++++++++XX++++++++++++++++++ooooooooooooXXooooooooooooooooXXoo  ",
"  ooooooooXX++++@@@@@@@@@@@@@@@@XX@@@@@@@@@@@@++++++++++++++XX++++++++++++++++++ooooooooooooXXooooooooooooooooXXoo  ",
"  ooooooooXX++++@@@@@@@@@@@@@@@@XX@@@@@@@@@@@@++++++++++++++XX++++++++++++++++++ooooooooooooXXooooooooooooooooXXoo  ",
"  ooooooooXX++++@@@@@@@@@@@@@@@@XX@@@@@@@@@@@@++++++++++++++XX++++++++++++++++++ooooooooooooXXooooooooooooooooXXoo  ",
"  ooooooooXX++++@@@@@@@@@@@@@@@@XX@@@@@@@@@@@@++++++++++++++XX++++++++++++++++++ooooooooooooXXooooooooooooooooXXoo  ",
"  ooooooooXX++++@@@@@@@@@@@@@@@@XX@@@@@@@@@@@@++++++++++++++XX++++++++++++++++++ooooooooooooXXooooooooooooooooXXoo  ",
"  ooooooooXX++++@@@@@@@@@@@@@@@@XX@@@@@@@@@@@@++++++++++++++XX++++++++++++++++++ooooooooooooXXooooooooooooooooXXoo  ",
"  ooooooooXX++++@@@@@@@@@@@@@@@@XX@@@@@@@@@@@@++++++++++++++XX++++++++++++++++++ooooooooooooXXooooooooooooooooXXoo  ",
"  ooooooooXX++++@@@@@@@@@@@@@@@@XX@@@@@@@@@@@@++++++++++++++XX++++++++++++++++++ooooooooooooXXooooooooooooooooXXoo  ",
"  ooooooooXX++++@@@@@@@@@@@@@@@@XX@@@@@@@@@@@@++++++++++++++XX++++++++++++++++++ooooooooooXXooooooooooooooooooXXoo  ",
"  ooooooooXX++++@@@@@@@@@@@@@@@@XX@@@@@@@@@@@@++++++++++++++XX++++++++++++++++++ooooooooooXXooooooooooooooooooXXoo  ",
"  ooooooooXX++++@@@@@@@@@@@@@@@@XX@@@@@@@@@@@@++++++++++++++XX++++++++++++++++++ooooooooooXXooooooooooooooooooXXoo  ",
"  ooooooooXX++++@@@@@@@@@@@@@@@@XX@@@@@@@@@@@@++++++++++++++XX++++++++++++++++++ooooooooooXXooooooooooooooooooXXoo  ",
"  ooooooooXX++++@@@@@@@@@@@@@@@@@@XX@@@@@@@@@@++++++++++++++XX++++++++++++++++++ooooooooooXXooooooooooooooooooXXoo  ",
"  ooooooooXX++++@@@@@@@@@@@@@@@@@@XX@@@@@@@@@@++++++++++++++XX++++++++++++++++++ooooooooooXXooooooooooooooooooXXoo  ",
"  ooooooooXX++++++@@@@@@@@@@@@@@@@XX@@@@@@@@@@++++++++++++++XX++++++++++++++++ooooooooooooXXooooooooooooooooooXXoo  ",
"  ooooooooXX++++++@@@@@@@@@@@@@@@@XX@@@@@@@@@@++++++++++++++XX++++++++++++++++ooooooooooooXXooooooooooooooooooXXoo  ",
"  ooooooooooXX++++@@@@@@@@@@@@@@@@XX@@@@@@@@@@++++++++++++++XX++++++++++++++++ooooooooooooXXooooooooooooooooooXXoo  ",
"  ooooooooooXX++++@@@@@@@@@@@@@@@@XX@@@@@@@@@@++++++++++++++XX++++++++++++++++ooooooooooooXXooooooooooooooooooXXoo  ",
"  ooooooooooXX++++@@@@@@@@@@@@@@@@XX@@@@@@@@@@++++++++++++++XX++++++++++++++++ooooooooooooXXooooooooooooooooooXXoo  ",
"  ooooooooooXX++++@@@@@@@@@@@@@@@@XX@@@@@@@@@@++++++++++++++XX++++++++++++++++ooooooooooooXXooooooooooooooooooXXoo  ",
"  ooooooooooXX++++@@@@@@@@@@@@@@@@XX@@@@@@@@@@++++++++++++++XX++++++++++++++++ooooooooooooXXooooooooooooooooooXXoo  ",
"  ooooooooooXX++++@@@@@@@@@@@@@@@@XX@@@@@@@@@@++++++++++++++XX++++++++++++++++ooooooooooooXXooooooooooooooooooXXoo  ",
"  ooooooooooXX++++@@@@@@@@@@@@@@@@XX@@@@@@@@@@++++++++++++++XX++++++++++++++++ooooooooooooXXooooooooooooooooooXXoo  ",
"  ooooooooooXX++++@@@@@@@@@@@@@@@@XX@@@@@@@@@@++++++++++++++XX++++++++++++++++ooooooooooooXXooooooooooooooooooXXoo  ",
"##  ..OOOOOO$$$$%%%%%%%%&&&&&&&&%%%%%%%%$$$$$$$$$$$$$$$$$$$$$$$$$$$$$$$$$$$$OOOOOOOOOOOOOOOOOOOOOOOO........OOOO  ##",
"##  ..OOOOOO$$$$%%%%%%%%&&&&&&&&%%%%%%%%$$$$$$$$$$$$$$$$$$$$$$$$$$$$$$$$$$$$OOOOOOOOOOOOOOOOOOOOOOOO........OOOO  ##",
"##  ..OOOOOO$$$$%%%%%%%%&&&&&&&&%%%%%%%%$$$$$$$$$$$$$$$$$$$$$$$$$$$$$$$$$$$$OOOOOOOOOOOOOOOOOOOOOOOO........OOOO  ##",
"##  ..OOOOOO$$$$%%%%%%%%&&&&&&&&%%%%%%%%$$$$$$$$$$$$$$$$$$$$$$$$$$$$$$$$$$$$OOOOOOOOOOOOOOOOOOOOOOOO........OOOO  ##",
"##  ..OOOOOO$$$$%%%%%%%%&&&&&&&&%%%%%%%%$$$$$$$$$$$$$$$$$$$$$$$$$$$$$$$$$$$$OOOOOOOOOOOOOOOOOOOOOOOO........OOOO  ##",
"##  ..OOOOOO$$$$%%%%%%%%&&&&&&&&%%%%%%%%$$$$$$$$$$$$$$$$$$$$$$$$$$$$$$$$$$$$OOOOOOOOOOOOOOOOOOOOOOOO........OOOO  ##",
"##  ..OOOOOO$$$$%%%%%%%%&&&&&&&&%%%%%%%%$$$$$$$$$$$$$$$$$$$$$$$$$$$$$$$$$$$$OOOOOOOOOOOOOOOOOOOOOOOO........OOOO  ##",
"##  ..OOOOOO$$$$%%%%%%%%&&&&&&&&%%%%%%%%$$$$$$$$$$$$$$$$$$$$$$$$$$$$$$$$$$$$OOOOOOOOOOOOOOOOOOOOOOOO........OOOO  ##",
"####  ooooooooooXX++++@@@@@@@@@@@@@@XX@@@@@@@@@@++++++++++++XX++++++++++++++++ooooooooooXXooooooooooooooooXXoo  ####",
"####  ooooooooooXX++++@@@@@@@@@@@@@@XX@@@@@@@@@@++++++++++++XX++++++++++++++++ooooooooooXXooooooooooooooooXXoo  ####",
"####  ooooooooooXX++++@@@@@@@@@@@@@@XX@@@@@@@@@@++++++++++++XX++++++++++++++++ooooooooooXXooooooooooooooooXXoo  ####",
"####  ooooooooooXX++++@@@@@@@@@@@@@@XX@@@@@@@@@@++++++++++++XX++++++++++++++++ooooooooooXXooooooooooooooooXXoo  ####",
"####  ooooooooooooXX++++@@@@@@@@@@@@XX@@@@@@@@@@++++++++++++XX++++++++++++++++ooooooooXXooooooooooooooooXXoooo  ####",
"####  ooooooooooooXX++++@@@@@@@@@@@@XX@@@@@@@@@@++++++++++++XX++++++++++++++++ooooooooXXooooooooooooooooXXoooo  ####",
"######  ooooooooooXX++++@@@@@@@@@@@@@@XX@@@@@@@@++++++++++++XX++++++++++++++++ooooooooXXooooooooooooooooXXoo  ######",
"######  ooooooooooXX++++@@@@@@@@@@@@@@XX@@@@@@@@++++++++++++XX++++++++++++++++ooooooooXXooooooooooooooooXXoo  ######",
"######  ooooooooooooXX++@@@@@@@@@@@@@@XX@@@@@@@@++++++++++++XX++++++++++++++ooooooooooXXooooooooooooooXXoooo  ######",
"######  ooooooooooooXX++@@@@@@@@@@@@@@XX@@@@@@@@++++++++++++XX++++++++++++++ooooooooooXXooooooooooooooXXoooo  ######",
"########  ooooooooooXX++++@@@@@@@@@@@@XX@@@@@@@@@@++++++++++XX++++++++++++++ooooooooooXXooooooooooooooXXoo  ########",
"########  ooooooooooXX++++@@@@@@@@@@@@XX@@@@@@@@@@++++++++++XX++++++++++++++ooooooooooXXooooooooooooooXXoo  ########",
"########  ooooooooooooXX++@@@@@@@@@@@@XX@@@@@@@@@@++++++++++XX++++++++++++++ooooooooXXooooooooooooooooXXoo  ########",
"########  ooooooooooooXX++@@@@@@@@@@@@XX@@@@@@@@@@++++++++++XX++++++++++++++ooooooooXXooooooooooooooooXXoo  ########",
"##########  ooooooooooXX++++@@@@@@@@@@@@XX@@@@@@@@++++++++++XX++++++++++++++ooooooooXXooooooooooooooXXoo  ##########",
"##########  ooooooooooXX++++@@@@@@@@@@@@XX@@@@@@@@++++++++++XX++++++++++++++ooooooooXXooooooooooooooXXoo  ##########",
"##########  ooooooooooooXX++@@@@@@@@@@@@XX@@@@@@@@++++++++++XX++++++++++++++ooooooooXXooooooooooooooXXoo  ##########",
"##########  ooooooooooooXX++@@@@@@@@@@@@XX@@@@@@@@++++++++++XX++++++++++++++ooooooooXXooooooooooooooXXoo  ##########",
"############  ..OOOOOO$$$$%%%%%%&&&&&&&&%%%%%%%%$$$$$$$$$$$$$$$$$$$$$$OOOOOOOOOOOOOOOOOOOOOO........OO  ############",
"############  ..OOOOOO$$$$%%%%%%&&&&&&&&%%%%%%%%$$$$$$$$$$$$$$$$$$$$$$OOOOOOOOOOOOOOOOOOOOOO........OO  ############",
"############  ..OOOOOO$$$$%%%%%%&&&&&&&&%%%%%%%%$$$$$$$$$$$$$$$$$$$$$$OOOOOOOOOOOOOOOOOOOO..........OO  ############",
"############  ..OOOOOO$$$$%%%%%%&&&&&&&&%%%%%%%%$$$$$$$$$$$$$$$$$$$$$$OOOOOOOOOOOOOOOOOOOO..........OO  ############",
"##############  ..OOOOOO$$$$%%%%%%&&&&&&&&%%%%%%$$$$$$$$$$$$$$$$$$$$$$OOOOOOOOOOOOOOOOOOOO........OO  ##############",
"##############  ..OOOOOO$$$$%%%%%%&&&&&&&&%%%%%%$$$$$$$$$$$$$$$$$$$$$$OOOOOOOOOOOOOOOOOOOO........OO  ##############",
"################  ..OOOOOO$$$$%%%%%%&&&&&&%%%%%%$$$$$$$$$$$$$$$$$$$$$$OOOOOOOOOOOOOOOOOO........OO  ################",
"################  ..OOOOOO$$$$%%%%%%&&&&&&%%%%%%$$$$$$$$$$$$$$$$$$$$$$OOOOOOOOOOOOOOOOOO........OO  ################",
"##################                                                                                ##################",
"##################                                                                                ##################",
"####################################################################################################################"
};
